<?xml version="1.0" standalone="no"?>
<!DOCTYPE svg PUBLIC "-//W3C//DTD SVG 20010904//EN"
 "http://www.w3.org/TR/2001/REC-SVG-20010904/DTD/svg10.dtd">
<svg version="1.0" xmlns="http://www.w3.org/2000/svg"
 width="508.000000pt" height="508.000000pt" viewBox="0 0 508.000000 508.000000"
 preserveAspectRatio="xMidYMid meet">
<metadata>
Created by potrace 1.14, written by Peter Selinger 2001-2017
</metadata>
<g transform="translate(0.000000,508.000000) scale(0.100000,-0.100000)"
fill="#000000" stroke="none">
<path d="M1819 4003 c-330 -247 -387 -294 -406 -332 l-23 -44 0 -1317 c0
-1170 2 -1319 15 -1330 12 -10 22 -10 39 -2 42 19 730 538 763 575 18 20 37
53 42 74 16 58 15 2635 -1 2651 -7 7 -19 12 -29 12 -9 0 -189 -129 -400 -287z"/>
<path d="M3095 3566 c-39 -17 -79 -55 -102 -97 -17 -31 -18 -63 -18 -411 1
-279 4 -381 13 -390 18 -18 45 0 187 127 72 65 280 250 463 413 276 246 332
300 332 322 0 14 -5 31 -12 38 -18 18 -822 16 -863 -2z"/>
<path d="M2717 2365 c-265 -208 -293 -233 -318 -290 -22 -48 -24 -133 -5 -179
27 -65 582 -892 614 -914 70 -51 85 -52 539 -52 273 0 431 4 444 10 11 6 19
21 19 36 0 17 -78 143 -223 362 -123 186 -353 534 -511 775 -201 304 -294 437
-307 437 -9 0 -123 -83 -252 -185z"/>
</g>
</svg>
